<svg width="28" height="28" viewBox="0 0 28 28" fill="none" xmlns="http://www.w3.org/2000/svg">
<g clip-path="url(#clip0_2090_240)">
<path d="M12.0687 22.881V14.5161H8.6661C8.48944 14.5161 8.32002 14.4501 8.1951 14.3325C8.07018 14.215 8 14.0556 8 13.8894V10.5809C8 10.4147 8.07018 10.2553 8.1951 10.1377C8.32002 10.0202 8.48944 9.95415 8.6661 9.95415H12.0553V6.75148C11.9742 5.99199 12.0709 5.225 12.3384 4.50439C12.606 3.78378 13.038 3.12703 13.6041 2.58026C14.1702 2.03349 14.8566 1.60996 15.6152 1.33943C16.3738 1.06889 17.1862 0.957911 17.9952 1.01428H20.8308C21.0091 1.01395 21.1804 1.0796 21.3078 1.19706C21.4352 1.31452 21.5083 1.47439 21.5115 1.64216V4.44349C21.5077 4.61097 21.4343 4.77037 21.307 4.88752C21.1798 5.00468 21.0088 5.07026 20.8308 5.07022H19.0586C17.1446 5.07022 16.7767 5.9235 16.7767 7.17812V9.953H21.327C21.4216 9.95005 21.5157 9.96652 21.6028 10.0013C21.6899 10.036 21.7679 10.0882 21.8315 10.1542C21.895 10.2202 21.9424 10.2984 21.9706 10.3834C21.9987 10.4684 22.0068 10.5582 21.9943 10.6464L21.5824 13.9675C21.5618 14.1197 21.4826 14.2594 21.3599 14.3603C21.2371 14.4611 21.0793 14.5162 20.9163 14.5149H16.8048V22.8798C16.8068 23.0275 16.7773 23.1741 16.7181 23.3109C16.6589 23.4477 16.5712 23.572 16.4601 23.6764C16.349 23.7808 16.2169 23.8632 16.0714 23.9188C15.9259 23.9743 15.7701 24.0019 15.6131 23.9999H13.2457C13.0899 24.0002 12.9356 23.9714 12.7918 23.915C12.648 23.8587 12.5175 23.776 12.4079 23.6718C12.2984 23.5675 12.212 23.4438 12.1538 23.3079C12.0955 23.1719 12.0666 23.0275 12.0687 22.881Z" fill="white"/>
<path d="M12.0687 22.881V14.5161H8.6661C8.48944 14.5161 8.32002 14.4501 8.1951 14.3325C8.07018 14.215 8 14.0556 8 13.8894V10.5809C8 10.4147 8.07018 10.2553 8.1951 10.1377C8.32002 10.0202 8.48944 9.95415 8.6661 9.95415H12.0553V6.75148C11.9742 5.99199 12.0709 5.225 12.3384 4.50439C12.606 3.78378 13.038 3.12703 13.6041 2.58026C14.1702 2.03349 14.8566 1.60996 15.6152 1.33943C16.3738 1.06889 17.1862 0.957911 17.9952 1.01428H20.8308C21.0091 1.01395 21.1804 1.0796 21.3078 1.19706C21.4352 1.31452 21.5083 1.47439 21.5115 1.64216V4.44349C21.5077 4.61097 21.4343 4.77037 21.307 4.88752C21.1798 5.00468 21.0088 5.07026 20.8308 5.07022H19.0586C17.1446 5.07022 16.7767 5.9235 16.7767 7.17812V9.953H21.327C21.4216 9.95005 21.5157 9.96652 21.6028 10.0013C21.6899 10.036 21.7679 10.0882 21.8315 10.1542C21.895 10.2202 21.9424 10.2984 21.9706 10.3834C21.9987 10.4684 22.0068 10.5582 21.9943 10.6464L21.5824 13.9675C21.5618 14.1197 21.4826 14.2594 21.3599 14.3603C21.2371 14.4611 21.0793 14.5162 20.9163 14.5149H16.8048V22.8798C16.8068 23.0275 16.7773 23.1741 16.7181 23.3109C16.6589 23.4477 16.5712 23.572 16.4601 23.6764C16.349 23.7808 16.2169 23.8632 16.0714 23.9188C15.9259 23.9743 15.7701 24.0019 15.6131 23.9999H13.2457C13.0899 24.0002 12.9356 23.9714 12.7918 23.915C12.648 23.8587 12.5175 23.776 12.4079 23.6718C12.2984 23.5675 12.212 23.4438 12.1538 23.3079C12.0955 23.1719 12.0666 23.0275 12.0687 22.881Z" fill="url(#paint0_linear_2090_240)"/>
</g>
<defs>
<linearGradient id="paint0_linear_2090_240" x1="15" y1="1" x2="15" y2="24" gradientUnits="userSpaceOnUse">
<stop stop-color="white"/>
<stop offset="1" stop-color="#999999"/>
</linearGradient>
<clipPath id="clip0_2090_240">
<rect width="25.8462" height="25.8462" fill="white" transform="translate(1.61523 1.07812)"/>
</clipPath>
</defs>
</svg>
