<svg width="27" height="26" viewBox="0 0 27 26" fill="none" xmlns="http://www.w3.org/2000/svg">
<path d="M11 9L16 9V12.9467C16 13.5284 16.4716 14 17.0533 14L21 14V10.0533C21 9.47157 20.5284 9 19.9467 9L16 9V5.05328C16 4.47157 15.5284 4 14.9467 4L12.0533 4C11.4716 4 11 4.47157 11 5.05328V9L7.05328 9C6.47157 9 6 9.47157 6 10.0533L6 14L9.94672 14C10.5284 14 11 13.5284 11 12.9467L11 9ZM2.05328 19C1.47157 19 1 18.5284 1 17.9467L1 15.0533C1 14.4716 1.47157 14 2.05328 14H6L6 17.9467C6 18.5284 5.52843 19 4.94672 19H2.05328ZM24.9467 19C25.5284 19 26 18.5284 26 17.9467V15.0533C26 14.4716 25.5284 14 24.9467 14H21L21 17.9467C21 18.5284 21.4716 19 22.0533 19H24.9467Z" fill="white"/>
<path d="M11 9L16 9V12.9467C16 13.5284 16.4716 14 17.0533 14L21 14V10.0533C21 9.47157 20.5284 9 19.9467 9L16 9V5.05328C16 4.47157 15.5284 4 14.9467 4L12.0533 4C11.4716 4 11 4.47157 11 5.05328V9L7.05328 9C6.47157 9 6 9.47157 6 10.0533L6 14L9.94672 14C10.5284 14 11 13.5284 11 12.9467L11 9ZM2.05328 19C1.47157 19 1 18.5284 1 17.9467L1 15.0533C1 14.4716 1.47157 14 2.05328 14H6L6 17.9467C6 18.5284 5.52843 19 4.94672 19H2.05328ZM24.9467 19C25.5284 19 26 18.5284 26 17.9467V15.0533C26 14.4716 25.5284 14 24.9467 14H21L21 17.9467C21 18.5284 21.4716 19 22.0533 19H24.9467Z" fill="url(#paint0_linear_2090_255)"/>
<defs>
<linearGradient id="paint0_linear_2090_255" x1="13.5" y1="4" x2="13.5" y2="19" gradientUnits="userSpaceOnUse">
<stop stop-color="white"/>
<stop offset="1" stop-color="#999999"/>
</linearGradient>
</defs>
</svg>
