<svg width="28" height="28" viewBox="0 0 28 28" fill="none" xmlns="http://www.w3.org/2000/svg">
<path d="M10.2462 3H19.2923C22.7385 3 25.5385 5.8 25.5385 9.24615V18.2923C25.5385 19.9489 24.8804 21.5376 23.709 22.709C22.5376 23.8804 20.9489 24.5385 19.2923 24.5385H10.2462C6.8 24.5385 4 21.7385 4 18.2923V9.24615C4 7.58957 4.65808 6.00084 5.82946 4.82946C7.00084 3.65808 8.58957 3 10.2462 3ZM10.0308 5.15385C9.00255 5.15385 8.01644 5.56231 7.28937 6.28937C6.56231 7.01644 6.15385 8.00255 6.15385 9.03077V18.5077C6.15385 20.6508 7.88769 22.3846 10.0308 22.3846H19.5077C20.5359 22.3846 21.522 21.9762 22.2491 21.2491C22.9762 20.522 23.3846 19.5359 23.3846 18.5077V9.03077C23.3846 6.88769 21.6508 5.15385 19.5077 5.15385H10.0308ZM20.4231 6.76923C20.7801 6.76923 21.1225 6.91106 21.375 7.16351C21.6274 7.41596 21.7692 7.75836 21.7692 8.11539C21.7692 8.47241 21.6274 8.81481 21.375 9.06726C21.1225 9.31971 20.7801 9.46154 20.4231 9.46154C20.0661 9.46154 19.7237 9.31971 19.4712 9.06726C19.2187 8.81481 19.0769 8.47241 19.0769 8.11539C19.0769 7.75836 19.2187 7.41596 19.4712 7.16351C19.7237 6.91106 20.0661 6.76923 20.4231 6.76923ZM14.7692 8.38462C16.1973 8.38462 17.5669 8.95192 18.5767 9.96173C19.5865 10.9715 20.1538 12.3411 20.1538 13.7692C20.1538 15.1973 19.5865 16.5669 18.5767 17.5767C17.5669 18.5865 16.1973 19.1538 14.7692 19.1538C13.3411 19.1538 11.9715 18.5865 10.9617 17.5767C9.95192 16.5669 9.38462 15.1973 9.38462 13.7692C9.38462 12.3411 9.95192 10.9715 10.9617 9.96173C11.9715 8.95192 13.3411 8.38462 14.7692 8.38462ZM14.7692 10.5385C13.9124 10.5385 13.0906 10.8788 12.4847 11.4847C11.8788 12.0906 11.5385 12.9124 11.5385 13.7692C11.5385 14.6261 11.8788 15.4478 12.4847 16.0537C13.0906 16.6596 13.9124 17 14.7692 17C15.6261 17 16.4478 16.6596 17.0537 16.0537C17.6596 15.4478 18 14.6261 18 13.7692C18 12.9124 17.6596 12.0906 17.0537 11.4847C16.4478 10.8788 15.6261 10.5385 14.7692 10.5385Z" fill="white"/>
<path d="M10.2462 3H19.2923C22.7385 3 25.5385 5.8 25.5385 9.24615V18.2923C25.5385 19.9489 24.8804 21.5376 23.709 22.709C22.5376 23.8804 20.9489 24.5385 19.2923 24.5385H10.2462C6.8 24.5385 4 21.7385 4 18.2923V9.24615C4 7.58957 4.65808 6.00084 5.82946 4.82946C7.00084 3.65808 8.58957 3 10.2462 3ZM10.0308 5.15385C9.00255 5.15385 8.01644 5.56231 7.28937 6.28937C6.56231 7.01644 6.15385 8.00255 6.15385 9.03077V18.5077C6.15385 20.6508 7.88769 22.3846 10.0308 22.3846H19.5077C20.5359 22.3846 21.522 21.9762 22.2491 21.2491C22.9762 20.522 23.3846 19.5359 23.3846 18.5077V9.03077C23.3846 6.88769 21.6508 5.15385 19.5077 5.15385H10.0308ZM20.4231 6.76923C20.7801 6.76923 21.1225 6.91106 21.375 7.16351C21.6274 7.41596 21.7692 7.75836 21.7692 8.11539C21.7692 8.47241 21.6274 8.81481 21.375 9.06726C21.1225 9.31971 20.7801 9.46154 20.4231 9.46154C20.0661 9.46154 19.7237 9.31971 19.4712 9.06726C19.2187 8.81481 19.0769 8.47241 19.0769 8.11539C19.0769 7.75836 19.2187 7.41596 19.4712 7.16351C19.7237 6.91106 20.0661 6.76923 20.4231 6.76923ZM14.7692 8.38462C16.1973 8.38462 17.5669 8.95192 18.5767 9.96173C19.5865 10.9715 20.1538 12.3411 20.1538 13.7692C20.1538 15.1973 19.5865 16.5669 18.5767 17.5767C17.5669 18.5865 16.1973 19.1538 14.7692 19.1538C13.3411 19.1538 11.9715 18.5865 10.9617 17.5767C9.95192 16.5669 9.38462 15.1973 9.38462 13.7692C9.38462 12.3411 9.95192 10.9715 10.9617 9.96173C11.9715 8.95192 13.3411 8.38462 14.7692 8.38462ZM14.7692 10.5385C13.9124 10.5385 13.0906 10.8788 12.4847 11.4847C11.8788 12.0906 11.5385 12.9124 11.5385 13.7692C11.5385 14.6261 11.8788 15.4478 12.4847 16.0537C13.0906 16.6596 13.9124 17 14.7692 17C15.6261 17 16.4478 16.6596 17.0537 16.0537C17.6596 15.4478 18 14.6261 18 13.7692C18 12.9124 17.6596 12.0906 17.0537 11.4847C16.4478 10.8788 15.6261 10.5385 14.7692 10.5385Z" fill="url(#paint0_linear_2090_234)"/>
<defs>
<linearGradient id="paint0_linear_2090_234" x1="14.7692" y1="3" x2="14.7692" y2="24.5385" gradientUnits="userSpaceOnUse">
<stop stop-color="white"/>
<stop offset="1" stop-color="#999999"/>
</linearGradient>
</defs>
</svg>
