<svg width="28" height="28" viewBox="0 0 28 28" fill="none" xmlns="http://www.w3.org/2000/svg">
<path d="M7.11921 5.62513C8.37483 5.62513 9.39271 4.60725 9.39271 3.35163C9.39271 2.09601 8.37483 1.07812 7.11921 1.07812C5.86359 1.07812 4.8457 2.09601 4.8457 3.35163C4.8457 4.60725 5.86359 5.62513 7.11921 5.62513Z" fill="white"/>
<path d="M7.11921 5.62513C8.37483 5.62513 9.39271 4.60725 9.39271 3.35163C9.39271 2.09601 8.37483 1.07812 7.11921 1.07812C5.86359 1.07812 4.8457 2.09601 4.8457 3.35163C4.8457 4.60725 5.86359 5.62513 7.11921 5.62513Z" fill="url(#paint0_linear_2090_245)"/>
<path d="M11.9356 7.73381V21.5328H16.22V14.7089C16.22 12.9083 16.5588 11.1645 18.7914 11.1645C20.9933 11.1645 21.0205 13.2232 21.0205 14.8226V21.534H25.3072V13.9666C25.3072 10.2494 24.507 7.39278 20.1623 7.39278C18.0764 7.39278 16.6782 8.53749 16.1064 9.62082H16.0484V7.73381H11.9356ZM4.95369 7.73381H9.24493V21.5328H4.95369V7.73381Z" fill="white"/>
<path d="M11.9356 7.73381V21.5328H16.22V14.7089C16.22 12.9083 16.5588 11.1645 18.7914 11.1645C20.9933 11.1645 21.0205 13.2232 21.0205 14.8226V21.534H25.3072V13.9666C25.3072 10.2494 24.507 7.39278 20.1623 7.39278C18.0764 7.39278 16.6782 8.53749 16.1064 9.62082H16.0484V7.73381H11.9356ZM4.95369 7.73381H9.24493V21.5328H4.95369V7.73381Z" fill="url(#paint1_linear_2090_245)"/>
<defs>
<linearGradient id="paint0_linear_2090_245" x1="15.0765" y1="1.07812" x2="15.0765" y2="21.534" gradientUnits="userSpaceOnUse">
<stop stop-color="white"/>
<stop offset="1" stop-color="#999999"/>
</linearGradient>
<linearGradient id="paint1_linear_2090_245" x1="15.0765" y1="1.07812" x2="15.0765" y2="21.534" gradientUnits="userSpaceOnUse">
<stop stop-color="white"/>
<stop offset="1" stop-color="#999999"/>
</linearGradient>
</defs>
</svg>
