<svg width="117" height="120" viewBox="0 0 117 120" fill="none" xmlns="http://www.w3.org/2000/svg">
<path fill-rule="evenodd" clip-rule="evenodd" d="M-9.98815e-05 112C-9.94953e-05 116.418 3.58162 120 7.9999 120L31.9999 120C36.4182 120 39.9999 116.418 39.9999 112L39.9999 88C39.9999 83.5817 43.5816 80 47.9999 80L109 80C113.418 80 117 76.4183 117 72L117 40L117 8.00001C117 3.58173 113.418 3.13124e-07 109 6.99382e-07L89 2.44784e-06C84.5817 2.8341e-06 81 3.58172 81 8L81 32C81 36.4183 77.4183 40 73 40L47.9999 40C43.5816 40 39.9999 36.4183 39.9999 32L39.9999 8.00001C39.9999 3.58173 36.4182 7.04469e-06 31.9999 7.43094e-06L7.99989 9.52909e-06C3.58161 9.91535e-06 -0.00010936 3.58173 -0.000108973 8.00001L-9.98815e-05 112Z" fill="#1A1B1A"/>
</svg>
