<svg width="159" height="160" viewBox="0 0 159 160" fill="none" xmlns="http://www.w3.org/2000/svg">
<path fill-rule="evenodd" clip-rule="evenodd" d="M78.5 151.5C78.5 155.918 82.0817 159.5 86.5 159.5L150.5 159.5C154.918 159.5 158.5 155.918 158.5 151.5L158.5 127.5C158.5 123.082 154.918 119.5 150.5 119.5L88 119.5C83.5817 119.5 80 115.918 80 111.5L80 88C80 83.5817 83.5817 80 88 80L149 80C153.418 80 157 76.4183 157 72L157 40L157 8C157 3.58173 153.418 -4.44259e-07 149 -8.30517e-07L129 -2.57897e-06C124.582 -2.96523e-06 121 3.58172 121 8L121 32C121 36.4183 117.418 40 113 40L88 40C83.5817 40 80 36.4183 80 32L80 7.99999C80 3.58172 76.4183 -7.17581e-06 72 -7.56207e-06L8.00001 -1.31571e-05C3.58174 -1.35434e-05 1.36308e-05 3.58171 1.32446e-05 7.99999L4.15258e-06 112C3.76632e-06 116.418 3.58173 120 8 120L70.5 120C74.9183 120 78.5 123.582 78.5 128L78.5 151.5Z" fill="#1A1B1A"/>
</svg>
