<svg width="120" height="117" viewBox="0 0 120 117" fill="none" xmlns="http://www.w3.org/2000/svg">
<path fill-rule="evenodd" clip-rule="evenodd" d="M7.99999 -9.95318e-05C3.58172 -9.93387e-05 -4.95768e-06 3.58162 -4.76455e-06 7.9999L-3.71547e-06 31.9999C-3.52234e-06 36.4182 3.58172 39.9999 8 39.9999L32 39.9999C36.4183 39.9999 40 43.5816 40 47.9999L40 109C40 113.418 43.5817 117 48 117L80 117L112 117C116.418 117 120 113.418 120 109L120 89C120 84.5817 116.418 81 112 81L88 81C83.5817 81 80 77.4183 80 73L80 47.9999C80 43.5816 83.5817 39.9999 88 39.9999L112 39.9999C116.418 39.9999 120 36.4182 120 31.9999L120 7.9999C120 3.58161 116.418 -0.000104271 112 -0.000104078L7.99999 -9.95318e-05Z" fill="#1A1B1A"/>
</svg>
