<svg width="22" height="24" viewBox="0 0 22 24" fill="none" xmlns="http://www.w3.org/2000/svg">
<path d="M16.9 16.8989C15.675 17.8789 13.96 18.6139 12.245 18.6139C8.325 18.6139 5.635 15.6739 5.635 11.7589C5.635 7.83891 8.33 5.14891 12.245 5.14891C13.96 5.14891 15.675 5.63891 16.9 6.86391L17.635 7.59891L21.555 3.92391L20.575 3.18891C18.37 1.22891 15.43 0.00390625 12.25 0.00390625C5.395 0.00390625 0.25 5.14891 0.25 12.0039C0.25 18.8589 5.395 24.0039 12.25 24.0039C15.435 24.0039 18.37 22.7789 20.575 20.8189L21.555 20.0839L17.635 16.1639L16.9 16.8989Z" fill="url(#paint0_linear_3020_203)"/>
<path d="M12 15.9189C14.165 15.9189 15.92 14.1639 15.92 11.9989C15.92 9.83391 14.165 8.07891 12 8.07891C9.835 8.07891 8.08 9.83391 8.08 11.9989C8.08 14.1639 9.835 15.9189 12 15.9189Z" fill="url(#paint1_linear_3020_203)"/>
<defs>
<linearGradient id="paint0_linear_3020_203" x1="10.9025" y1="0.00390625" x2="10.9025" y2="24.0039" gradientUnits="userSpaceOnUse">
<stop stop-color="white"/>
<stop offset="1" stop-color="#999999"/>
</linearGradient>
<linearGradient id="paint1_linear_3020_203" x1="10.9025" y1="0.00390625" x2="10.9025" y2="24.0039" gradientUnits="userSpaceOnUse">
<stop stop-color="white"/>
<stop offset="1" stop-color="#999999"/>
</linearGradient>
</defs>
</svg>
